<mxfile host="app.diagrams.net" modified="2024-06-03T20:27:53.185Z" agent="Mozilla/5.0 (Windows NT 10.0; Win64; x64) AppleWebKit/537.36 (KHTML, like Gecko) Chrome/125.0.0.0 Safari/537.36" version="24.4.10" etag="WY5pfPSMLianP-7naW1T" type="github">
  <diagram name="PÃ¡gina-1" id="VW4EFTZNEQ1svurDis4x">
    <mxGraphModel>
      <root>
        <mxCell id="0" />
        <mxCell id="1" parent="0" />
      </root>
    </mxGraphModel>
  </diagram>
</mxfile>
